<svg fill="currentColor" viewBox="0 0 20 20" :class="{'rotate-180': open, 'rotate-0': !open}"
     class="w-6 h-6 mt-1 ml-1 transition-transform duration-200 transform md:-mt-1">
    <path fill-rule="evenodd"
          d="M5.293 7.293a1 1 0 011.414 0L10 10.586l3.293-3.293a1 1 0 111.414 1.414l-4 4a1 1 0 01-1.414 0l-4-4a1 1 0 010-1.414z"
          clip-rule="evenodd"></path>
</svg>


<svg fill="currentColor" viewBox="0 0 20 20" class="w-6 h-6">
<path x-show="!open" fill-rule="evenodd"
      d="M3 5a1 1 0 011-1h12a1 1 0 110 2H4a1 1 0 01-1-1zM3 10a1 1 0 011-1h12a1 1 0 110 2H4a1 1 0 01-1-1zM9 15a1 1 0 011-1h6a1 1 0 110 2h-6a1 1 0 01-1-1z"
      clip-rule="evenodd"></path>
<path x-show="open" fill-rule="evenodd"
      d="M4.293 4.293a1 1 0 011.414 0L10 8.586l4.293-4.293a1 1 0 111.414 1.414L11.414 10l4.293 4.293a1 1 0 01-1.414 1.414L10 11.414l-4.293 4.293a1 1 0 01-1.414-1.414L8.586 10 4.293 5.707a1 1 0 010-1.414z"
      clip-rule="evenodd"></path>
</svg>